{"asset":{"version":"2.0","generator":"THREE.GLTFExporter"},"scenes":[{"name":"default","nodes":[0]}],"scene":0,"nodes":[{"mesh":0}],"bufferViews":[{"buffer":0,"byteOffset":0,"byteLength":31908,"target":34962,"byteStride":12},{"buffer":0,"byteOffset":31908,"byteLength":31908,"target":34962,"byteStride":12},{"buffer":0,"byteOffset":63816,"byteLength":21272,"target":34962,"byteStride":8},{"buffer":0,"byteOffset":85088,"byteLength":6960,"target":34963}],"buffers":[{"byteLength":92048,"uri":"data:application/octet-stream;base64,"}],"accessors":[{"bufferView":0,"componentType":5126,"count":2659,"max":[76,12,9.500049591064453],"min":[-24,-38.00014114379883,-13.000100135803223],"type":"VEC3"},{"bufferView":1,"componentType":5126,"count":2659,"max":[1,1,1],"min":[-1,-1,-0.5773502588272095],"type":"VEC3"},{"bufferView":2,"componentType":5126,"count":2659,"max":[0.625,0.125],"min":[0,0],"type":"VEC2"},{"bufferView":3,"componentType":5123,"count":3480,"max":[2658],"min":[0],"type":"SCALAR"}],"materials":[{"pbrMetallicRoughness":{"metallicFactor":0,"roughnessFactor":1,"baseColorTexture":{"index":0}},"alphaMode":"MASK","alphaCutoff":0.01,"name":"texture_0"}],"textures":[{"sampler":0,"source":0,"name":"texture_0"}],"samplers":[{"magFilter":9728,"minFilter":9728,"wrapS":33071,"wrapT":33071}],"images":[{"mimeType":"image/png","uri":"data:image/png;base64,"}],"meshes":[{"primitives":[{"mode":4,"attributes":{"POSITION":0,"NORMAL":1,"TEXCOORD_0":2},"indices":3,"material":0}]}]}