{"asset":{"version":"2.0","generator":"THREE.GLTFExporter"},"scenes":[{"name":"default","nodes":[0]}],"scene":0,"nodes":[{"mesh":0}],"bufferViews":[{"buffer":0,"byteOffset":0,"byteLength":17928,"target":34962,"byteStride":12},{"buffer":0,"byteOffset":17928,"byteLength":17928,"target":34962,"byteStride":12},{"buffer":0,"byteOffset":35856,"byteLength":11952,"target":34962,"byteStride":8},{"buffer":0,"byteOffset":47808,"byteLength":4488,"target":34963}],"buffers":[{"byteLength":52296,"uri":"data:application/octet-stream;base64,"}],"accessors":[{"bufferView":0,"componentType":5126,"count":1494,"max":[10,11.939842224121094,26.303449630737305],"min":[-27,-2.0601577758789062,-32.69654846191406],"type":"VEC3"},{"bufferView":1,"componentType":5126,"count":1494,"max":[1,1,1],"min":[-1,-1,-1],"type":"VEC3"},{"bufferView":2,"componentType":5126,"count":1494,"max":[0.75,0.75],"min":[0,0],"type":"VEC2"},{"bufferView":3,"componentType":5123,"count":2244,"max":[1493],"min":[0],"type":"SCALAR"}],"materials":[{"pbrMetallicRoughness":{"metallicFactor":0,"roughnessFactor":1,"baseColorTexture":{"index":0}},"alphaMode":"MASK","alphaCutoff":0.01,"name":"texture_0"}],"textures":[{"sampler":0,"source":0,"name":"texture_0"}],"samplers":[{"magFilter":9728,"minFilter":9728,"wrapS":33071,"wrapT":33071}],"images":[{"mimeType":"image/png","uri":"data:image/png;base64,"}],"meshes":[{"primitives":[{"mode":4,"attributes":{"POSITION":0,"NORMAL":1,"TEXCOORD_0":2},"indices":3,"material":0}]}]}