{"asset":{"version":"2.0","generator":"THREE.GLTFExporter"},"scenes":[{"name":"default","nodes":[0]}],"scene":0,"nodes":[{"mesh":0}],"bufferViews":[{"buffer":0,"byteOffset":0,"byteLength":17688,"target":34962,"byteStride":12},{"buffer":0,"byteOffset":17688,"byteLength":17688,"target":34962,"byteStride":12},{"buffer":0,"byteOffset":35376,"byteLength":11792,"target":34962,"byteStride":8},{"buffer":0,"byteOffset":47168,"byteLength":4236,"target":34963}],"buffers":[{"byteLength":51404,"uri":"data:application/octet-stream;base64,"}],"accessors":[{"bufferView":0,"componentType":5126,"count":1474,"max":[16,9.0662260055542,18.46736717224121],"min":[-36,-5.434174060821533,-13.532631874084473],"type":"VEC3"},{"bufferView":1,"componentType":5126,"count":1474,"max":[1,1,1],"min":[-1,-1,-1],"type":"VEC3"},{"bufferView":2,"componentType":5126,"count":1474,"max":[0.75,1],"min":[0,0],"type":"VEC2"},{"bufferView":3,"componentType":5123,"count":2118,"max":[1473],"min":[0],"type":"SCALAR"}],"materials":[{"pbrMetallicRoughness":{"metallicFactor":0,"roughnessFactor":1,"baseColorTexture":{"index":0}},"alphaMode":"MASK","alphaCutoff":0.01,"name":"texture_0"}],"textures":[{"sampler":0,"source":0,"name":"texture_0"}],"samplers":[{"magFilter":9728,"minFilter":9728,"wrapS":33071,"wrapT":33071}],"images":[{"mimeType":"image/png","uri":"data:image/png;base64,"}],"meshes":[{"primitives":[{"mode":4,"attributes":{"POSITION":0,"NORMAL":1,"TEXCOORD_0":2},"indices":3,"material":0}]}]}